<svg width="28" height="28" viewBox="0 0 28 28" fill="none" xmlns="http://www.w3.org/2000/svg">
    <path
        d="M14 20.6667C14.3777 20.6667 14.6944 20.539 14.95 20.2834C15.2055 20.0279 15.3333 19.7112 15.3333 19.3334C15.3333 18.9556 15.2055 18.639 14.95 18.3834C14.6944 18.1279 14.3777 18.0001 14 18.0001C13.6222 18.0001 13.3055 18.1279 13.05 18.3834C12.7944 18.639 12.6666 18.9556 12.6666 19.3334C12.6666 19.7112 12.7944 20.0279 13.05 20.2834C13.3055 20.539 13.6222 20.6667 14 20.6667ZM14 15.3334C14.3777 15.3334 14.6944 15.2056 14.95 14.9501C15.2055 14.6945 15.3333 14.3779 15.3333 14.0001V8.66675C15.3333 8.28897 15.2055 7.9723 14.95 7.71675C14.6944 7.46119 14.3777 7.33341 14 7.33341C13.6222 7.33341 13.3055 7.46119 13.05 7.71675C12.7944 7.9723 12.6666 8.28897 12.6666 8.66675V14.0001C12.6666 14.3779 12.7944 14.6945 13.05 14.9501C13.3055 15.2056 13.6222 15.3334 14 15.3334ZM14 27.3334C12.1555 27.3334 10.4222 26.9834 8.79996 26.2834C7.17774 25.5834 5.76663 24.6334 4.56663 23.4334C3.36663 22.2334 2.41663 20.8223 1.71663 19.2001C1.01663 17.5779 0.666626 15.8445 0.666626 14.0001C0.666626 12.1556 1.01663 10.4223 1.71663 8.80008C2.41663 7.17786 3.36663 5.76675 4.56663 4.56675C5.76663 3.36675 7.17774 2.41675 8.79996 1.71675C10.4222 1.01675 12.1555 0.666748 14 0.666748C15.8444 0.666748 17.5777 1.01675 19.2 1.71675C20.8222 2.41675 22.2333 3.36675 23.4333 4.56675C24.6333 5.76675 25.5833 7.17786 26.2833 8.80008C26.9833 10.4223 27.3333 12.1556 27.3333 14.0001C27.3333 15.8445 26.9833 17.5779 26.2833 19.2001C25.5833 20.8223 24.6333 22.2334 23.4333 23.4334C22.2333 24.6334 20.8222 25.5834 19.2 26.2834C17.5777 26.9834 15.8444 27.3334 14 27.3334Z"
        fill="#E49F04" />
</svg>
